# xmcd
#
# Track frame offsets: 
#        150
#        17277
#        34424
#        52016
#        69030
#        85053
#        101096
#        127981
#        146649
#        164557
#
# Disc length: 2417 seconds
#
# Revision: 0
# Processed by: cddbd v1.5.2PL0 Copyright (c) Steve Scherf et al.
# Submitted via: ExactAudioCopy v0.99pb5
#
DISCID=7f096f0a
DTITLE=Alex Jenkins and The Bombers - Creepin' After Midnight
DYEAR=2012
DGENRE=Blues
TTITLE0=Let's Stick Together
TTITLE1=Hometown Boy
TTITLE2=Look What The Cat Dragged In
TTITLE3=Hey Pretty Baby
TTITLE4=Good Bye Baby Blues
TTITLE5=Creepin' After Midnight
TTITLE6=Over You
TTITLE7=She Wants To Rock
TTITLE8=Back In My Arms Again
TTITLE9=Mojo Woman
EXTD=
EXTT0=
EXTT1=
EXTT2=
EXTT3=
EXTT4=
EXTT5=
EXTT6=
EXTT7=
EXTT8=
EXTT9=
PLAYORDER=
